<?xml version="1.0" ?><svg height="100%" id="Layer_1" version="1.1" viewBox="0 0 512 512" width="100%" xml:space="preserve" xmlns="http://www.w3.org/2000/svg" xmlns:svg="http://www.w3.org/2000/svg"><defs id="defs12"/><g id="g4140"><rect height="512" id="rect2987" rx="64" ry="64" style="fill:#4ea23b;fill-opacity:1;fill-rule:nonzero;stroke:none" width="512" x="0" y="0"/><path d="m 256.14463,55.999999 c -8.72864,0 -17.4643,0.416036 -23.6958,1.285198 C 157.57148,67.728768 97.795629,127.11048 86.471749,202.29838 c -5.931703,39.38528 2.41223,81.06355 22.999651,114.81102 13.31225,21.82179 32.4474,41.64038 53.28217,55.18319 25.44684,16.54059 52.74778,25.47927 84.60887,27.71209 l 8.35379,0.58905 0,27.17658 c 0,14.94505 0.24804,27.42476 0.56223,27.73886 1.12626,1.12635 3.00753,0.49827 11.64715,-3.82882 34.21317,-17.13546 65.30485,-39.66348 91.08841,-66.00028 38.35408,-39.17704 60.04634,-82.33677 67.33898,-133.95512 1.56357,-11.06648 1.32564,-38.18207 -0.4284,-49.13205 C 413.68883,126.20473 354.96136,67.762748 279.84042,57.285197 273.60884,56.416035 264.87326,55.999999 256.14463,55.999999 z m -81.28878,121.638641 55.87938,0 c 5.56243,0 10.04057,4.47811 10.04057,10.04061 l 0,64.98282 c 0,0.76253 0.0224,1.29427 -0.1071,2.0349 -0.54201,10.49187 -1.89104,14.40693 -5.00687,20.88447 -7.1517,14.86569 -21.78497,25.76229 -37.91335,28.24758 -2.91808,0.44966 -3.86767,0.22902 -5.35499,-1.25842 -1.61926,-1.61919 -1.82069,-2.79493 -1.82069,-11.19193 0,-10.69125 0.0903,-10.80959 8.11276,-13.41426 4.20106,-1.36411 9.16107,-4.46598 11.43287,-7.14891 2.50922,-2.96276 5.29296,-10.05873 5.30153,-13.52136 l 0,-3.64139 c -13.28287,0.11525 -27.13516,-0.1147 -40.56411,0 -5.56242,0 -10.04065,-4.50489 -10.04065,-10.06739 l 0,-55.90611 c 0,-5.5625 4.47814,-10.04061 10.04065,-10.04061 z m 106.43051,0 55.8793,0 c 5.5625,0 10.04056,4.47811 10.04056,10.04061 l 0,64.98282 c 0,0.76253 0.0225,1.29427 -0.1071,2.0349 -0.54192,10.49187 -1.89087,14.40693 -5.00687,20.88447 -7.15153,14.86569 -21.78488,25.76229 -37.91334,28.24758 -2.91809,0.44966 -3.86759,0.22902 -5.355,-1.25842 -1.61917,-1.61919 -1.82069,-2.79493 -1.82069,-11.19193 0,-10.69125 0.0904,-10.80959 8.11277,-13.41426 4.20114,-1.36411 9.16097,-4.46598 11.43295,-7.14891 2.50905,-2.96276 5.29287,-10.05873 5.30144,-13.52136 l 0,-3.64139 c -13.28269,0.11525 -27.13524,-0.1147 -40.56402,0 -5.56251,0 -10.04065,-4.50489 -10.04065,-10.06739 l 0,-55.90611 c 0,-5.5625 4.47805,-10.04061 10.04065,-10.04061 z" id="path12727-1" style="fill:#ffffff;fill-opacity:1"/></g></svg>
