<?xml version="1.0" ?><!DOCTYPE svg  PUBLIC '-//W3C//DTD SVG 1.1//EN'  'http://www.w3.org/Graphics/SVG/1.1/DTD/svg11.dtd'><svg enable-background="new 0 0 512 512" height="100%" id="Layer_1" version="1.1" viewBox="0 0 512 512" width="100%" xml:space="preserve" xmlns="http://www.w3.org/2000/svg"><path d="M492.761,442.732c0,34.171-27.702,61.872-61.873,61.872H81.145c-34.171,0-61.874-27.701-61.874-61.872  V92.987c0-34.171,27.703-61.873,61.874-61.873h349.743c34.171,0,61.873,27.701,61.873,61.873V442.732z" fill="#0A5772"/><path d="M492.761,417.988c0,34.172-27.702,61.873-61.873,61.873H81.145c-34.171,0-61.874-27.701-61.874-61.873  V68.243c0-34.17,27.703-61.872,61.874-61.872h349.743c34.171,0,61.873,27.702,61.873,61.872V417.988z" fill="#0083BE"/><path d="M492.761,417.988V256.431c-2.005-2.024-4.021-4.037-6.077-6.001c-4.064-4.259-8.331-8.344-12.494-12.505  c-4.164-4.163-8.25-8.427-12.506-12.495c-4.064-4.259-8.331-8.344-12.494-12.505c-4.164-4.163-45.837-45.838-50-50  c-4.123-4.122-8.186-8.316-12.375-12.369c-5.834-5.643-13.697-8.774-21.803-8.774c-1.143,0-2.283,0-3.424,0  c-6.227,0-12.453,0-18.679,0c-10.159,0-20.319,0-30.479,0c-12.503,0-25.007,0-37.511,0c-13.258,0-26.517,0-39.775,0  c-12.424,0-24.849,0-37.273,0c-10,0-20.001,0-30.001,0c-5.987,0-11.976,0-17.963,0c-0.993,0-1.984,0-2.977,0  c-7.753,0-15.321,2.914-21.051,8.142c-6.441,5.876-10.178,14.323-10.178,23.043c0,1.254,0,2.508,0,3.761c0,8.134,0,16.269,0,24.403  c0,12.431,0,24.862,0,37.294c0,12.883,0,25.767,0,38.65c0,9.49,0,18.979,0,28.47c0,2.271,0,4.54,0,6.812  c0,5.676,1.182,11.18,3.985,16.162c2.677,4.755,6.76,8.547,10.665,12.289c4.071,4.254,8.331,8.344,12.494,12.505  c8.335,8.332,16.666,16.669,25,25c16.67,16.664,33.331,33.337,50,50c16.67,16.664,33.331,33.337,50,50  c0.509,0.51,1.016,1.028,1.522,1.55h161.52C465.059,479.861,492.761,452.16,492.761,417.988z" fill="#0064A2"/><path d="M365.15,141.781H146.883c-17.211,0-31.182,13.968-31.182,31.181v140.312  c0,17.205,13.971,31.182,31.182,31.182H365.15c17.207,0,31.182-13.977,31.182-31.182V172.962  C396.332,155.749,382.357,141.781,365.15,141.781z M211.211,256.749l26.746,23.362c5.088,4.448,11.53,6.636,18.061,6.636  c6.527,0,12.977-2.218,18.066-6.636l26.734-23.362l-0.621,0.617l60.875,60.857H150.958l60.868-60.857L211.211,256.749z   M139.158,306.436V193.702l60.132,52.609L139.158,306.436z M312.75,246.311l60.129-52.609v112.685L312.75,246.311z M372.879,167.993  v3.504l-109.787,96.059c-3.789,3.311-10.357,3.311-14.146,0l-109.787-96.059v-3.504H372.879z" fill="#FFFFFF"/></svg>
