<?xml version="1.0" ?><svg height="100%" id="Layer_1" version="1.1" viewBox="0 0 512 512" width="100%" xml:space="preserve" xmlns="http://www.w3.org/2000/svg"  xmlns:svg="http://www.w3.org/2000/svg"><defs id="defs12"/><g id="g4780"><rect height="512" id="rect2987" rx="64" ry="64" style="fill:#7b519d;fill-opacity:1;fill-rule:nonzero;stroke:none" width="512" x="0" y="0"/><g id="g15" transform="matrix(1.452588,0,0,1.452588,-115.17955,-97.147891)"><path d="m 369.75,304.701 c -8.397,-6.76 -17.371,-12.828 -26.204,-19.027 -17.617,-12.373 -33.73,-13.334 -46.876,6.572 -7.382,11.176 -17.716,11.665 -28.521,6.762 -29.789,-13.506 -52.791,-34.318 -66.265,-64.595 -5.96,-13.395 -5.882,-25.405 8.064,-34.879 7.383,-5.01 14.822,-10.939 14.227,-21.887 -0.777,-14.275 -35.437,-61.981 -49.124,-67.016 -5.664,-2.084 -11.304,-1.949 -17.066,-0.012 -32.095,10.793 -45.388,37.188 -32.657,68.441 37.98,93.242 104.82,158.154 196.828,197.773 5.245,2.256 11.073,3.158 14.024,3.967 20.947,0.211 45.486,-19.971 52.573,-40 6.823,-19.269 -7.597,-26.918 -19.003,-36.099 z" id="path17-6" style="fill:#ffffff;fill-rule:evenodd"/><path d="m 266.586,120.19 c 67.264,10.344 98.285,42.328 106.851,110.076 0.794,6.258 -1.537,15.674 7.391,15.848 9.331,0.178 7.083,-9.099 7.161,-15.363 0.789,-63.806 -54.846,-122.957 -119.458,-125.138 -4.875,0.701 -14.962,-3.362 -15.591,7.564 -0.419,7.367 8.073,6.156 13.646,7.013 z" id="path19-1" style="fill:#ffffff;fill-rule:evenodd"/><path d="m 279.743,138.766 c -6.47,-0.779 -15.011,-3.828 -16.523,5.15 -1.578,9.422 7.941,8.465 14.058,9.834 41.544,9.285 56.009,24.406 62.849,65.615 0.999,6.008 -0.986,15.359 9.224,13.809 7.567,-1.152 4.834,-9.168 5.467,-13.85 0.335,-39.563 -33.567,-75.574 -75.075,-80.558 z" id="path21-2" style="fill:#ffffff;fill-rule:evenodd"/><path d="m 283.558,171.118 c -4.319,0.107 -8.558,0.574 -10.145,5.189 -2.384,6.898 2.631,8.543 7.736,9.363 17.042,2.736 26.011,12.785 27.713,29.779 0.46,4.613 3.387,8.35 7.843,7.824 6.174,-0.736 6.732,-6.232 6.543,-11.451 0.305,-19.093 -21.275,-41.161 -39.69,-40.704 z" id="path23" style="fill:#ffffff;fill-rule:evenodd"/></g></g></svg>
